# xmcd
#
# Track frame offsets: 
#        150
#        11345
#        25183
#        36535
#        54500
#        66498
#        76698
#        95983
#        108785
#        121205
#        135140
#        146268
#        157383
#        169455
#
# Disc length: 2480 seconds
#
# Revision: 3
# Processed by: cddbd v1.5.2PL0 Copyright (c) Steve Scherf et al.
# Submitted via: ExactAudioCopyFreeDBPlugin 1.0
#
DISCID=ba09ae0e
DTITLE=Various Artist - The Soul of Christmas, Volume 2 [Malaco Recor
DTITLE=ds]
DYEAR=1993
DGENRE=Holiday
TTITLE0=Brook Benton - This Time of Year
TTITLE1=Charles Brown - Merry Christmas Baby
TTITLE2=Brook Benton - You're All I Want for Christmas
TTITLE3=Mahalia Jackson - O Little Town of Bethlehem
TTITLE4=Charles Taylor - A Christmas Message
TTITLE5=The Pattersons - The Birthday of a King
TTITLE6=Mahalia Jackson - What Child is This
TTITLE7=Louis Armstrong - Zat You Santa?
TTITLE8=Jerry Butler - Silent Night
TTITLE9=Johnny Adams - Lonesome Christmas
TTITLE10=The Platters - Please Come Home for Christmas
TTITLE11=Charles Brown - Let's Make Everyday Christmas
TTITLE12=Johnny Adams - Little Boy That Santa Forgot
TTITLE13=The Drifters - White Christmas
EXTD=
EXTT0=
EXTT1=
EXTT2=
EXTT3=
EXTT4=
EXTT5=
EXTT6=
EXTT7=
EXTT8=
EXTT9=
EXTT10=
EXTT11=
EXTT12=
EXTT13=
PLAYORDER=
